<?xml version="1.0" encoding="utf-8" standalone="no"?>
<!DOCTYPE svg PUBLIC "-//W3C//DTD SVG 1.1//EN"
  "http://www.w3.org/Graphics/SVG/1.1/DTD/svg11.dtd">
<svg xmlns:xlink="http://www.w3.org/1999/xlink" width="382.68pt" height="140.935135pt" viewBox="0 0 382.68 140.935135" xmlns="http://www.w3.org/2000/svg" version="1.1">
 <metadata>
  <rdf:RDF xmlns:dc="http://purl.org/dc/elements/1.1/" xmlns:cc="http://creativecommons.org/ns#" xmlns:rdf="http://www.w3.org/1999/02/22-rdf-syntax-ns#">
   <cc:Work>
    <dc:type rdf:resource="http://purl.org/dc/dcmitype/StillImage"/>
    <dc:format>image/svg+xml</dc:format>
    <dc:creator>
     <cc:Agent>
      <dc:title>Matplotlib v3.11.2, https://matplotlib.org/</dc:title>
     </cc:Agent>
    </dc:creator>
   </cc:Work>
  </rdf:RDF>
 </metadata>
 <defs>
  <style type="text/css">*{stroke-linejoin: round; stroke-linecap: butt}</style>
 </defs>
 <g id="figure_1">
  <g id="patch_1">
   <path d="M 0 140.935135 
L 382.68 140.935135 
L 382.68 0 
L 0 0 
L 0 140.935135 
z
" style="fill: none"/>
  </g>
  <g id="axes_1">
   <g id="patch_2">
    <path d="M 15.494595 42.494595 
L 43.143243 42.494595 
L 43.143243 70.143243 
L 15.494595 70.143243 
z
" clip-path="url(#pbec773d261)" style="fill: #d9622b; opacity: 0.3; stroke: #888888; stroke-width: 0.8; stroke-linejoin: miter"/>
   </g>
   <g id="patch_3">
    <path d="M 43.143243 42.494595 
L 70.791892 42.494595 
L 70.791892 70.143243 
L 43.143243 70.143243 
z
" clip-path="url(#pbec773d261)" style="fill: #3b82c4; opacity: 0.3; stroke: #888888; stroke-width: 0.8; stroke-linejoin: miter"/>
   </g>
   <g id="patch_4">
    <path d="M 70.791892 42.494595 
L 98.440541 42.494595 
L 98.440541 70.143243 
L 70.791892 70.143243 
z
" clip-path="url(#pbec773d261)" style="fill: #3a9a5b; opacity: 0.3; stroke: #888888; stroke-width: 0.8; stroke-linejoin: miter"/>
   </g>
   <g id="patch_5">
    <path d="M 15.494595 70.143243 
L 43.143243 70.143243 
L 43.143243 97.791892 
L 15.494595 97.791892 
L 15.494595 70.143243 
z
" clip-path="url(#pbec773d261)" style="fill: none; stroke: #888888; stroke-width: 0.8; stroke-linejoin: miter"/>
   </g>
   <g id="patch_6">
    <path d="M 43.143243 70.143243 
L 70.791892 70.143243 
L 70.791892 97.791892 
L 43.143243 97.791892 
L 43.143243 70.143243 
z
" clip-path="url(#pbec773d261)" style="fill: none; stroke: #888888; stroke-width: 0.8; stroke-linejoin: miter"/>
   </g>
   <g id="patch_7">
    <path d="M 70.791892 70.143243 
L 98.440541 70.143243 
L 98.440541 97.791892 
L 70.791892 97.791892 
L 70.791892 70.143243 
z
" clip-path="url(#pbec773d261)" style="fill: none; stroke: #888888; stroke-width: 0.8; stroke-linejoin: miter"/>
   </g>
   <g id="patch_8">
    <path d="M 15.494595 97.791892 
L 43.143243 97.791892 
L 43.143243 125.440541 
L 15.494595 125.440541 
L 15.494595 97.791892 
z
" clip-path="url(#pbec773d261)" style="fill: none; stroke: #888888; stroke-width: 0.8; stroke-linejoin: miter"/>
   </g>
   <g id="patch_9">
    <path d="M 43.143243 97.791892 
L 70.791892 97.791892 
L 70.791892 125.440541 
L 43.143243 125.440541 
L 43.143243 97.791892 
z
" clip-path="url(#pbec773d261)" style="fill: none; stroke: #888888; stroke-width: 0.8; stroke-linejoin: miter"/>
   </g>
   <g id="patch_10">
    <path d="M 70.791892 97.791892 
L 98.440541 97.791892 
L 98.440541 125.440541 
L 70.791892 125.440541 
L 70.791892 97.791892 
z
" clip-path="url(#pbec773d261)" style="fill: none; stroke: #888888; stroke-width: 0.8; stroke-linejoin: miter"/>
   </g>
   <g id="line2d_1">
    <path d="M 9.964865 83.967568 
L 103.97027 83.967568 
" clip-path="url(#pbec773d261)" style="fill: none; stroke-dasharray: 5.92,2.56; stroke-dashoffset: 0; stroke: #9b59b6; stroke-width: 1.6"/>
   </g>
   <g id="text_1">
    <!-- 1 -->
    <g style="fill: #888888" transform="translate(27.176731 59.918919) scale(0.12 -0.12)">
     <defs>
      <path id="AppleSDGothicNeo-Regular-12" d="M 1146 243 
L 1632 243 
L 1632 4634 
L 1363 4634 
L 352 4160 
L 352 3866 
L 1146 4051 
L 1146 243 
z
" transform="scale(0.015625)"/>
     </defs>
     <use xlink:href="#AppleSDGothicNeo-Regular-12"/>
    </g>
   </g>
   <g id="text_2">
    <!-- 2 -->
    <g style="fill: #888888" transform="translate(53.769755 59.918919) scale(0.12 -0.12)">
     <defs>
      <path id="AppleSDGothicNeo-Regular-13" d="M 397 269 
L 3066 269 
L 3066 704 
L 1107 704 
L 1779 1382 
C 2522 2138 2970 2650 2970 3392 
C 2970 4160 2502 4640 1638 4640 
C 1152 4640 717 4422 448 4250 
L 595 3846 
C 845 4019 1190 4198 1555 4198 
C 2163 4198 2438 3917 2438 3347 
C 2438 2733 2029 2266 1421 1632 
L 397 570 
L 397 269 
z
" transform="scale(0.015625)"/>
     </defs>
     <use xlink:href="#AppleSDGothicNeo-Regular-13"/>
    </g>
   </g>
   <g id="text_3">
    <!-- 3 -->
    <g style="fill: #888888" transform="translate(81.400591 59.918919) scale(0.12 -0.12)">
     <defs>
      <path id="AppleSDGothicNeo-Regular-14" d="M 1491 205 
C 2445 205 3053 730 3053 1478 
C 3053 2144 2630 2458 2074 2566 
C 2560 2726 2893 3040 2893 3571 
C 2893 4243 2368 4634 1600 4634 
C 1229 4634 723 4474 467 4301 
L 544 3891 
C 813 4045 1146 4198 1498 4198 
C 2022 4198 2362 4013 2362 3488 
C 2362 3008 1984 2726 1427 2726 
L 1043 2726 
L 1043 2291 
L 1459 2291 
C 2112 2291 2534 2029 2534 1478 
C 2534 947 2138 634 1427 634 
C 1107 634 678 755 435 915 
L 326 512 
C 563 346 992 205 1491 205 
z
" transform="scale(0.015625)"/>
     </defs>
     <use xlink:href="#AppleSDGothicNeo-Regular-14"/>
    </g>
   </g>
   <g id="text_4">
    <!-- 4 -->
    <g style="fill: #888888" transform="translate(25.988919 87.567568) scale(0.12 -0.12)">
     <defs>
      <path id="AppleSDGothicNeo-Regular-15" d="M 2214 166 
L 2682 166 
L 2682 1171 
L 3398 1171 
L 3398 1587 
L 2682 1587 
L 2682 4621 
L 2285 4621 
L 186 1555 
L 186 1171 
L 2214 1171 
L 2214 166 
z
M 730 1587 
L 2214 3814 
L 2214 1587 
L 730 1587 
z
" transform="scale(0.015625)"/>
     </defs>
     <use xlink:href="#AppleSDGothicNeo-Regular-15"/>
    </g>
   </g>
   <g id="text_5">
    <!-- 5 -->
    <g style="fill: #888888" transform="translate(53.973193 87.567568) scale(0.12 -0.12)">
     <defs>
      <path id="AppleSDGothicNeo-Regular-16" d="M 1395 192 
C 2342 192 2906 838 2906 1606 
C 2906 2509 2374 2918 1510 2918 
C 1331 2918 1069 2874 896 2829 
L 986 4134 
L 2752 4134 
L 2752 4570 
L 576 4570 
L 422 2317 
C 621 2406 1024 2528 1318 2528 
C 1990 2528 2374 2266 2374 1613 
C 2374 1005 1978 621 1299 621 
C 947 621 525 768 288 928 
L 192 518 
C 448 333 896 192 1395 192 
z
" transform="scale(0.015625)"/>
     </defs>
     <use xlink:href="#AppleSDGothicNeo-Regular-16"/>
    </g>
   </g>
   <g id="text_6">
    <!-- 6 -->
    <g style="fill: #888888" transform="translate(81.291841 87.567568) scale(0.12 -0.12)">
     <defs>
      <path id="AppleSDGothicNeo-Regular-17" d="M 1837 192 
C 2707 192 3232 826 3232 1645 
C 3232 2464 2656 2957 1939 2957 
C 1459 2957 1107 2733 877 2496 
C 941 3834 1350 4205 2080 4205 
C 2355 4205 2733 4096 2886 4006 
L 3034 4378 
C 2854 4486 2458 4634 2029 4634 
C 1037 4634 365 3968 365 2451 
L 365 2118 
C 365 896 877 192 1837 192 
z
M 1830 614 
C 1146 614 877 1139 877 1939 
L 877 1984 
C 1056 2240 1427 2528 1837 2528 
C 2355 2528 2720 2266 2720 1594 
C 2720 979 2387 614 1830 614 
z
" transform="scale(0.015625)"/>
     </defs>
     <use xlink:href="#AppleSDGothicNeo-Regular-17"/>
    </g>
   </g>
   <g id="text_7">
    <!-- 7 -->
    <g style="fill: #888888" transform="translate(26.378919 115.216216) scale(0.12 -0.12)">
     <defs>
      <path id="AppleSDGothicNeo-Regular-18" d="M 710 243 
L 1274 243 
L 2957 4218 
L 2957 4544 
L 218 4544 
L 218 4115 
L 2400 4115 
L 710 243 
z
" transform="scale(0.015625)"/>
     </defs>
     <use xlink:href="#AppleSDGothicNeo-Regular-18"/>
    </g>
   </g>
   <g id="text_8">
    <!-- 8 -->
    <g style="fill: #888888" transform="translate(53.517568 115.216216) scale(0.12 -0.12)">
     <defs>
      <path id="AppleSDGothicNeo-Regular-19" d="M 1837 186 
C 2765 186 3341 723 3341 1408 
C 3341 2054 2829 2362 2298 2534 
C 2739 2765 3168 3066 3168 3584 
C 3168 4250 2624 4640 1818 4640 
C 992 4640 461 4179 461 3558 
C 461 3008 838 2682 1299 2502 
C 826 2317 339 1926 339 1363 
C 339 659 922 186 1837 186 
z
M 1830 608 
C 1261 608 851 909 851 1382 
C 851 1856 1280 2163 1702 2310 
C 2445 2074 2797 1882 2797 1357 
C 2797 915 2381 608 1830 608 
z
M 1920 2720 
C 1350 2867 1005 3130 1005 3571 
C 1005 3981 1331 4218 1824 4218 
C 2355 4218 2637 3942 2637 3565 
C 2637 3155 2323 2899 1920 2720 
z
" transform="scale(0.015625)"/>
     </defs>
     <use xlink:href="#AppleSDGothicNeo-Regular-19"/>
    </g>
   </g>
   <g id="text_9">
    <!-- 9 -->
    <g style="fill: #888888" transform="translate(81.291841 115.216216) scale(0.12 -0.12)">
     <defs>
      <path id="AppleSDGothicNeo-Regular-1a" d="M 1696 4634 
C 826 4634 307 3949 307 3142 
C 307 2323 896 1798 1619 1798 
C 2093 1798 2445 2010 2675 2272 
C 2630 1069 2227 621 1523 621 
C 1178 621 832 723 646 832 
L 506 461 
C 704 326 1107 192 1549 192 
C 2586 192 3187 979 3187 2477 
L 3187 2758 
C 3187 3974 2656 4634 1696 4634 
z
M 1702 4211 
C 2387 4211 2675 3686 2675 2886 
L 2675 2765 
C 2496 2515 2131 2227 1722 2227 
C 1203 2227 813 2515 813 3187 
C 813 3782 1146 4211 1702 4211 
z
" transform="scale(0.015625)"/>
     </defs>
     <use xlink:href="#AppleSDGothicNeo-Regular-1a"/>
    </g>
   </g>
   <g id="text_10">
    <!-- a -->
    <g style="fill: #888888" transform="translate(54.607411 16.2) scale(0.1 -0.1)">
     <defs>
      <path id="AppleSDGothicNeo-Regular-42" d="M 1242 211 
C 1670 211 1939 365 2086 544 
L 2118 544 
L 2170 269 
L 2566 269 
L 2566 2566 
C 2566 3213 2176 3501 1478 3501 
C 1114 3501 806 3443 531 3328 
L 531 2976 
C 730 3034 979 3078 1286 3078 
C 1856 3078 2074 2950 2074 2458 
L 2074 2125 
L 1216 2022 
C 608 1952 250 1658 250 1101 
C 250 506 666 211 1242 211 
z
M 1363 595 
C 998 595 762 768 762 1114 
C 762 1478 954 1638 1344 1677 
L 2074 1760 
L 2074 826 
C 1939 691 1658 595 1363 595 
z
" transform="scale(0.015625)"/>
     </defs>
     <use xlink:href="#AppleSDGothicNeo-Regular-42"/>
    </g>
    <!-- 거울: 가로줄 -->
    <g style="fill: #888888" transform="translate(32.607411 28.2) scale(0.1 -0.1)">
     <defs>
      <path id="AppleSDGothicNeo-Regular-462" d="M 4326 2496 
L 4326 -448 
L 4813 -448 
L 4813 5146 
L 4326 5146 
L 4326 2912 
L 3059 2912 
L 3059 2496 
L 4326 2496 
z
M 3078 4550 
L 442 4550 
L 442 4141 
L 2554 4141 
C 2458 2880 1651 1664 237 1043 
L 518 659 
C 1958 1344 3053 2733 3078 4550 
z
" transform="scale(0.015625)"/>
      <path id="AppleSDGothicNeo-Regular-a0e" d="M 4864 -397 
L 4864 0 
L 1318 0 
L 1318 557 
L 4685 557 
L 4685 1798 
L 3002 1798 
L 3002 2368 
L 5293 2368 
L 5293 2771 
L 243 2771 
L 243 2368 
L 2515 2368 
L 2515 1798 
L 819 1798 
L 819 1408 
L 4198 1408 
L 4198 922 
L 832 922 
L 832 -397 
L 4864 -397 
z
M 4762 4090 
C 4762 4710 4013 5075 2771 5075 
C 1549 5075 787 4710 787 4090 
C 787 3469 1549 3110 2771 3110 
C 4013 3110 4762 3469 4762 4090 
z
M 2771 4672 
C 3674 4672 4262 4448 4262 4090 
C 4262 3738 3674 3520 2771 3520 
C 1875 3520 1293 3738 1293 4090 
C 1293 4448 1875 4672 2771 4672 
z
" transform="scale(0.015625)"/>
      <path id="AppleSDGothicNeo-Regular-1b" d="M 640 3014 
L 1190 3014 
L 1190 3590 
L 640 3590 
L 640 3014 
z
M 640 659 
L 1190 659 
L 1190 1242 
L 640 1242 
L 640 659 
z
" transform="scale(0.015625)"/>
      <path id="AppleSDGothicNeo-Regular-1" transform="scale(0.015625)"/>
      <path id="AppleSDGothicNeo-Regular-43e" d="M 4544 5146 
L 4058 5146 
L 4058 -448 
L 4544 -448 
L 4544 2400 
L 5459 2400 
L 5459 2816 
L 4544 2816 
L 4544 5146 
z
M 3091 4544 
L 461 4544 
L 461 4134 
L 2566 4134 
C 2464 2874 1664 1696 269 1050 
L 570 666 
C 2010 1414 3059 2726 3091 4544 
z
" transform="scale(0.015625)"/>
      <path id="AppleSDGothicNeo-Regular-6fd" d="M 5293 262 
L 5293 672 
L 3002 672 
L 3002 1626 
L 4826 1626 
L 4826 2035 
L 1350 2035 
L 1350 2970 
L 4666 2970 
L 4666 4678 
L 858 4678 
L 858 4269 
L 4179 4269 
L 4179 3373 
L 864 3373 
L 864 1626 
L 2515 1626 
L 2515 672 
L 243 672 
L 243 262 
L 5293 262 
z
" transform="scale(0.015625)"/>
      <path id="AppleSDGothicNeo-Regular-ab4" d="M 4864 -371 
L 4864 32 
L 1331 32 
L 1331 538 
L 4672 538 
L 4672 1779 
L 3002 1779 
L 3002 2336 
L 5293 2336 
L 5293 2733 
L 243 2733 
L 243 2336 
L 2515 2336 
L 2515 1779 
L 845 1779 
L 845 1389 
L 4186 1389 
L 4186 902 
L 845 902 
L 845 -371 
L 4864 -371 
z
M 5030 3424 
C 4256 3494 3245 3859 3059 4493 
L 4819 4493 
L 4819 4896 
L 717 4896 
L 717 4493 
L 2490 4493 
C 2330 3846 1389 3494 525 3418 
L 742 3021 
C 1664 3142 2554 3571 2765 4077 
C 3046 3578 3910 3162 4806 3014 
L 5030 3424 
z
" transform="scale(0.015625)"/>
     </defs>
     <use xlink:href="#AppleSDGothicNeo-Regular-462"/>
     <use xlink:href="#AppleSDGothicNeo-Regular-a0e" transform="translate(86.5 0)"/>
     <use xlink:href="#AppleSDGothicNeo-Regular-1b" transform="translate(173 0)"/>
     <use xlink:href="#AppleSDGothicNeo-Regular-1" transform="translate(201.40625 0)"/>
     <use xlink:href="#AppleSDGothicNeo-Regular-43e" transform="translate(227.703125 0)"/>
     <use xlink:href="#AppleSDGothicNeo-Regular-6fd" transform="translate(314.203125 0)"/>
     <use xlink:href="#AppleSDGothicNeo-Regular-ab4" transform="translate(400.703125 0)"/>
    </g>
   </g>
  </g>
  <g id="axes_2">
   <g id="patch_11">
    <path d="M 149.867027 42.494595 
L 177.515676 42.494595 
L 177.515676 70.143243 
L 149.867027 70.143243 
L 149.867027 42.494595 
z
" clip-path="url(#p013dcf518e)" style="fill: none; stroke: #888888; stroke-width: 0.8; stroke-linejoin: miter"/>
   </g>
   <g id="patch_12">
    <path d="M 177.515676 42.494595 
L 205.164324 42.494595 
L 205.164324 70.143243 
L 177.515676 70.143243 
L 177.515676 42.494595 
z
" clip-path="url(#p013dcf518e)" style="fill: none; stroke: #888888; stroke-width: 0.8; stroke-linejoin: miter"/>
   </g>
   <g id="patch_13">
    <path d="M 205.164324 42.494595 
L 232.812973 42.494595 
L 232.812973 70.143243 
L 205.164324 70.143243 
L 205.164324 42.494595 
z
" clip-path="url(#p013dcf518e)" style="fill: none; stroke: #888888; stroke-width: 0.8; stroke-linejoin: miter"/>
   </g>
   <g id="patch_14">
    <path d="M 149.867027 70.143243 
L 177.515676 70.143243 
L 177.515676 97.791892 
L 149.867027 97.791892 
L 149.867027 70.143243 
z
" clip-path="url(#p013dcf518e)" style="fill: none; stroke: #888888; stroke-width: 0.8; stroke-linejoin: miter"/>
   </g>
   <g id="patch_15">
    <path d="M 177.515676 70.143243 
L 205.164324 70.143243 
L 205.164324 97.791892 
L 177.515676 97.791892 
L 177.515676 70.143243 
z
" clip-path="url(#p013dcf518e)" style="fill: none; stroke: #888888; stroke-width: 0.8; stroke-linejoin: miter"/>
   </g>
   <g id="patch_16">
    <path d="M 205.164324 70.143243 
L 232.812973 70.143243 
L 232.812973 97.791892 
L 205.164324 97.791892 
L 205.164324 70.143243 
z
" clip-path="url(#p013dcf518e)" style="fill: none; stroke: #888888; stroke-width: 0.8; stroke-linejoin: miter"/>
   </g>
   <g id="patch_17">
    <path d="M 149.867027 97.791892 
L 177.515676 97.791892 
L 177.515676 125.440541 
L 149.867027 125.440541 
z
" clip-path="url(#p013dcf518e)" style="fill: #d9622b; opacity: 0.3; stroke: #888888; stroke-width: 0.8; stroke-linejoin: miter"/>
   </g>
   <g id="patch_18">
    <path d="M 177.515676 97.791892 
L 205.164324 97.791892 
L 205.164324 125.440541 
L 177.515676 125.440541 
z
" clip-path="url(#p013dcf518e)" style="fill: #3b82c4; opacity: 0.3; stroke: #888888; stroke-width: 0.8; stroke-linejoin: miter"/>
   </g>
   <g id="patch_19">
    <path d="M 205.164324 97.791892 
L 232.812973 97.791892 
L 232.812973 125.440541 
L 205.164324 125.440541 
z
" clip-path="url(#p013dcf518e)" style="fill: #3a9a5b; opacity: 0.3; stroke: #888888; stroke-width: 0.8; stroke-linejoin: miter"/>
   </g>
   <g id="line2d_2">
    <path d="M 144.337297 36.964865 
L 238.342703 130.97027 
" clip-path="url(#p013dcf518e)" style="fill: none; stroke-dasharray: 5.92,2.56; stroke-dashoffset: 0; stroke: #9b59b6; stroke-width: 1.6"/>
   </g>
   <g id="text_11">
    <!-- 7 -->
    <g style="fill: #888888" transform="translate(160.751351 59.918919) scale(0.12 -0.12)">
     <use xlink:href="#AppleSDGothicNeo-Regular-18"/>
    </g>
   </g>
   <g id="text_12">
    <!-- 8 -->
    <g style="fill: #888888" transform="translate(187.89 59.918919) scale(0.12 -0.12)">
     <use xlink:href="#AppleSDGothicNeo-Regular-19"/>
    </g>
   </g>
   <g id="text_13">
    <!-- 9 -->
    <g style="fill: #888888" transform="translate(215.664274 59.918919) scale(0.12 -0.12)">
     <use xlink:href="#AppleSDGothicNeo-Regular-1a"/>
    </g>
   </g>
   <g id="text_14">
    <!-- 4 -->
    <g style="fill: #888888" transform="translate(160.361351 87.567568) scale(0.12 -0.12)">
     <use xlink:href="#AppleSDGothicNeo-Regular-15"/>
    </g>
   </g>
   <g id="text_15">
    <!-- 5 -->
    <g style="fill: #888888" transform="translate(188.345625 87.567568) scale(0.12 -0.12)">
     <use xlink:href="#AppleSDGothicNeo-Regular-16"/>
    </g>
   </g>
   <g id="text_16">
    <!-- 6 -->
    <g style="fill: #888888" transform="translate(215.664274 87.567568) scale(0.12 -0.12)">
     <use xlink:href="#AppleSDGothicNeo-Regular-17"/>
    </g>
   </g>
   <g id="text_17">
    <!-- 1 -->
    <g style="fill: #888888" transform="translate(161.549164 115.216216) scale(0.12 -0.12)">
     <use xlink:href="#AppleSDGothicNeo-Regular-12"/>
    </g>
   </g>
   <g id="text_18">
    <!-- 2 -->
    <g style="fill: #888888" transform="translate(188.142188 115.216216) scale(0.12 -0.12)">
     <use xlink:href="#AppleSDGothicNeo-Regular-13"/>
    </g>
   </g>
   <g id="text_19">
    <!-- 3 -->
    <g style="fill: #888888" transform="translate(215.773024 115.216216) scale(0.12 -0.12)">
     <use xlink:href="#AppleSDGothicNeo-Regular-14"/>
    </g>
   </g>
   <g id="text_20">
    <!-- a[::-1] -->
    <g style="fill: #888888" transform="translate(179.074375 16.2) scale(0.1 -0.1)">
     <defs>
      <path id="AppleSDGothicNeo-Regular-3c" d="M 557 -384 
L 1914 -384 
L 1914 6 
L 1050 6 
L 1050 4550 
L 1914 4550 
L 1914 4941 
L 557 4941 
L 557 -384 
z
" transform="scale(0.015625)"/>
      <path id="AppleSDGothicNeo-Regular-e" d="M 333 2138 
L 2445 2138 
L 2445 2560 
L 333 2560 
L 333 2138 
z
" transform="scale(0.015625)"/>
      <path id="AppleSDGothicNeo-Regular-3e" d="M 269 -384 
L 1619 -384 
L 1619 4941 
L 269 4941 
L 269 4550 
L 1133 4550 
L 1133 6 
L 269 6 
L 269 -384 
z
" transform="scale(0.015625)"/>
     </defs>
     <use xlink:href="#AppleSDGothicNeo-Regular-42"/>
     <use xlink:href="#AppleSDGothicNeo-Regular-3c" transform="translate(47.203125 0)"/>
     <use xlink:href="#AppleSDGothicNeo-Regular-1b" transform="translate(81.296875 0)"/>
     <use xlink:href="#AppleSDGothicNeo-Regular-1b" transform="translate(109.703125 0)"/>
     <use xlink:href="#AppleSDGothicNeo-Regular-e" transform="translate(138.109375 0)"/>
     <use xlink:href="#AppleSDGothicNeo-Regular-12" transform="translate(175.515625 0)"/>
     <use xlink:href="#AppleSDGothicNeo-Regular-3e" transform="translate(211.21875 0)"/>
    </g>
    <!-- 거울: 대각선 -->
    <g style="fill: #888888" transform="translate(166.979844 28.2) scale(0.1 -0.1)">
     <defs>
      <path id="AppleSDGothicNeo-Regular-600" d="M 4960 -448 
L 4960 5146 
L 4480 5146 
L 4480 2944 
L 3731 2944 
L 3731 5011 
L 3258 5011 
L 3258 -160 
L 3731 -160 
L 3731 2534 
L 4480 2534 
L 4480 -448 
L 4960 -448 
z
M 902 1414 
L 902 4051 
L 2586 4051 
L 2586 4461 
L 416 4461 
L 416 992 
L 787 992 
C 1517 992 2458 1056 2989 1158 
L 2944 1555 
C 2470 1453 1632 1414 1069 1414 
L 902 1414 
z
" transform="scale(0.015625)"/>
      <path id="AppleSDGothicNeo-Regular-43f" d="M 5395 3322 
L 5395 3731 
L 4544 3731 
L 4544 5146 
L 4058 5146 
L 4058 1824 
L 4544 1824 
L 4544 3322 
L 5395 3322 
z
M 838 1530 
L 838 1126 
L 4058 1126 
L 4058 -486 
L 4544 -486 
L 4544 1530 
L 838 1530 
z
M 2989 4762 
L 448 4762 
L 448 4346 
L 2458 4346 
C 2304 3398 1344 2566 224 2317 
L 486 1907 
C 1907 2349 2880 3302 2989 4762 
z
" transform="scale(0.015625)"/>
      <path id="AppleSDGothicNeo-Regular-8b6" d="M 4813 1082 
L 4813 5146 
L 4326 5146 
L 4326 3731 
L 3136 3731 
L 3136 3322 
L 4326 3322 
L 4326 1082 
L 4813 1082 
z
M 4934 -275 
L 4934 128 
L 1702 128 
L 1702 1434 
L 1216 1434 
L 1216 -275 
L 4934 -275 
z
M 3514 2298 
C 2854 2541 2106 3213 2106 4147 
L 2106 4826 
L 1613 4826 
L 1613 4128 
C 1613 3226 934 2464 192 2138 
L 493 1760 
C 1101 2067 1702 2675 1869 3277 
C 2106 2688 2675 2163 3238 1914 
L 3514 2298 
z
" transform="scale(0.015625)"/>
     </defs>
     <use xlink:href="#AppleSDGothicNeo-Regular-462"/>
     <use xlink:href="#AppleSDGothicNeo-Regular-a0e" transform="translate(86.5 0)"/>
     <use xlink:href="#AppleSDGothicNeo-Regular-1b" transform="translate(173 0)"/>
     <use xlink:href="#AppleSDGothicNeo-Regular-1" transform="translate(201.40625 0)"/>
     <use xlink:href="#AppleSDGothicNeo-Regular-600" transform="translate(227.703125 0)"/>
     <use xlink:href="#AppleSDGothicNeo-Regular-43f" transform="translate(314.203125 0)"/>
     <use xlink:href="#AppleSDGothicNeo-Regular-8b6" transform="translate(400.703125 0)"/>
    </g>
   </g>
  </g>
  <g id="axes_3">
   <g id="patch_20">
    <path d="M 284.239459 42.494595 
L 311.888108 42.494595 
L 311.888108 70.143243 
L 284.239459 70.143243 
L 284.239459 42.494595 
z
" clip-path="url(#p9e61dfa49a)" style="fill: none; stroke: #888888; stroke-width: 0.8; stroke-linejoin: miter"/>
   </g>
   <g id="patch_21">
    <path d="M 311.888108 42.494595 
L 339.536757 42.494595 
L 339.536757 70.143243 
L 311.888108 70.143243 
L 311.888108 42.494595 
z
" clip-path="url(#p9e61dfa49a)" style="fill: none; stroke: #888888; stroke-width: 0.8; stroke-linejoin: miter"/>
   </g>
   <g id="patch_22">
    <path d="M 339.536757 42.494595 
L 367.185405 42.494595 
L 367.185405 70.143243 
L 339.536757 70.143243 
z
" clip-path="url(#p9e61dfa49a)" style="fill: #d9622b; opacity: 0.3; stroke: #888888; stroke-width: 0.8; stroke-linejoin: miter"/>
   </g>
   <g id="patch_23">
    <path d="M 284.239459 70.143243 
L 311.888108 70.143243 
L 311.888108 97.791892 
L 284.239459 97.791892 
L 284.239459 70.143243 
z
" clip-path="url(#p9e61dfa49a)" style="fill: none; stroke: #888888; stroke-width: 0.8; stroke-linejoin: miter"/>
   </g>
   <g id="patch_24">
    <path d="M 311.888108 70.143243 
L 339.536757 70.143243 
L 339.536757 97.791892 
L 311.888108 97.791892 
L 311.888108 70.143243 
z
" clip-path="url(#p9e61dfa49a)" style="fill: none; stroke: #888888; stroke-width: 0.8; stroke-linejoin: miter"/>
   </g>
   <g id="patch_25">
    <path d="M 339.536757 70.143243 
L 367.185405 70.143243 
L 367.185405 97.791892 
L 339.536757 97.791892 
z
" clip-path="url(#p9e61dfa49a)" style="fill: #3b82c4; opacity: 0.3; stroke: #888888; stroke-width: 0.8; stroke-linejoin: miter"/>
   </g>
   <g id="patch_26">
    <path d="M 284.239459 97.791892 
L 311.888108 97.791892 
L 311.888108 125.440541 
L 284.239459 125.440541 
L 284.239459 97.791892 
z
" clip-path="url(#p9e61dfa49a)" style="fill: none; stroke: #888888; stroke-width: 0.8; stroke-linejoin: miter"/>
   </g>
   <g id="patch_27">
    <path d="M 311.888108 97.791892 
L 339.536757 97.791892 
L 339.536757 125.440541 
L 311.888108 125.440541 
L 311.888108 97.791892 
z
" clip-path="url(#p9e61dfa49a)" style="fill: none; stroke: #888888; stroke-width: 0.8; stroke-linejoin: miter"/>
   </g>
   <g id="patch_28">
    <path d="M 339.536757 97.791892 
L 367.185405 97.791892 
L 367.185405 125.440541 
L 339.536757 125.440541 
z
" clip-path="url(#p9e61dfa49a)" style="fill: #3a9a5b; opacity: 0.3; stroke: #888888; stroke-width: 0.8; stroke-linejoin: miter"/>
   </g>
   <g id="text_21">
    <!-- 7 -->
    <g style="fill: #888888" transform="translate(295.123784 59.918919) scale(0.12 -0.12)">
     <use xlink:href="#AppleSDGothicNeo-Regular-18"/>
    </g>
   </g>
   <g id="text_22">
    <!-- 4 -->
    <g style="fill: #888888" transform="translate(322.382432 59.918919) scale(0.12 -0.12)">
     <use xlink:href="#AppleSDGothicNeo-Regular-15"/>
    </g>
   </g>
   <g id="text_23">
    <!-- 1 -->
    <g style="fill: #888888" transform="translate(351.218894 59.918919) scale(0.12 -0.12)">
     <use xlink:href="#AppleSDGothicNeo-Regular-12"/>
    </g>
   </g>
   <g id="text_24">
    <!-- 8 -->
    <g style="fill: #888888" transform="translate(294.613784 87.567568) scale(0.12 -0.12)">
     <use xlink:href="#AppleSDGothicNeo-Regular-19"/>
    </g>
   </g>
   <g id="text_25">
    <!-- 5 -->
    <g style="fill: #888888" transform="translate(322.718057 87.567568) scale(0.12 -0.12)">
     <use xlink:href="#AppleSDGothicNeo-Regular-16"/>
    </g>
   </g>
   <g id="text_26">
    <!-- 2 -->
    <g style="fill: #888888" transform="translate(350.163269 87.567568) scale(0.12 -0.12)">
     <use xlink:href="#AppleSDGothicNeo-Regular-13"/>
    </g>
   </g>
   <g id="text_27">
    <!-- 9 -->
    <g style="fill: #888888" transform="translate(294.739409 115.216216) scale(0.12 -0.12)">
     <use xlink:href="#AppleSDGothicNeo-Regular-1a"/>
    </g>
   </g>
   <g id="text_28">
    <!-- 6 -->
    <g style="fill: #888888" transform="translate(322.388057 115.216216) scale(0.12 -0.12)">
     <use xlink:href="#AppleSDGothicNeo-Regular-17"/>
    </g>
   </g>
   <g id="text_29">
    <!-- 3 -->
    <g style="fill: #888888" transform="translate(350.145456 115.216216) scale(0.12 -0.12)">
     <use xlink:href="#AppleSDGothicNeo-Regular-14"/>
    </g>
   </g>
   <g id="text_30">
    <!-- zip(*a[::-1]) -->
    <g style="fill: #888888" transform="translate(302.381964 16.2) scale(0.1 -0.1)">
     <defs>
      <path id="AppleSDGothicNeo-Regular-5b" d="M 262 269 
L 2605 269 
L 2605 672 
L 858 672 
L 858 685 
L 2611 3091 
L 2611 3443 
L 358 3443 
L 358 3046 
L 2016 3046 
L 2016 3027 
L 262 640 
L 262 269 
z
" transform="scale(0.015625)"/>
      <path id="AppleSDGothicNeo-Regular-4a" d="M 486 269 
L 973 269 
L 973 3437 
L 486 3437 
L 486 269 
z
M 480 4077 
L 979 4077 
L 979 4589 
L 480 4589 
L 480 4077 
z
" transform="scale(0.015625)"/>
      <path id="AppleSDGothicNeo-Regular-51" d="M 467 -678 
L 960 -678 
L 960 422 
C 1139 320 1408 211 1773 211 
C 2650 211 3206 698 3206 1856 
L 3206 1939 
C 3206 3117 2605 3501 1907 3501 
C 1498 3501 1165 3360 966 3181 
L 941 3181 
L 941 3437 
L 467 3437 
L 467 -678 
z
M 1728 614 
C 1395 614 1107 717 960 838 
L 960 2854 
C 1107 2957 1408 3085 1779 3085 
C 2362 3085 2694 2810 2694 1914 
L 2694 1786 
C 2694 934 2330 614 1728 614 
z
" transform="scale(0.015625)"/>
      <path id="AppleSDGothicNeo-Regular-9" d="M 1472 -384 
L 1914 -384 
C 1344 256 883 1235 883 2221 
L 883 2374 
C 883 3392 1344 4307 1914 4941 
L 1472 4941 
C 883 4339 365 3469 365 2330 
L 365 2227 
C 365 1094 883 218 1472 -384 
z
" transform="scale(0.015625)"/>
      <path id="AppleSDGothicNeo-Regular-b" d="M 998 2765 
L 1370 2765 
L 1357 3450 
L 1920 3085 
L 2099 3411 
L 1517 3706 
L 2099 4006 
L 1920 4333 
L 1357 3968 
L 1370 4659 
L 998 4659 
L 1018 3968 
L 454 4333 
L 282 4006 
L 858 3706 
L 282 3411 
L 454 3085 
L 1018 3450 
L 998 2765 
z
" transform="scale(0.015625)"/>
      <path id="AppleSDGothicNeo-Regular-a" d="M 115 -384 
L 550 -384 
C 1146 218 1651 1088 1651 2227 
L 1651 2330 
C 1651 3462 1146 4339 550 4941 
L 115 4941 
C 678 4301 1146 3322 1146 2336 
L 1146 2176 
C 1146 1165 678 250 115 -384 
z
" transform="scale(0.015625)"/>
     </defs>
     <use xlink:href="#AppleSDGothicNeo-Regular-5b"/>
     <use xlink:href="#AppleSDGothicNeo-Regular-4a" transform="translate(45.09375 0)"/>
     <use xlink:href="#AppleSDGothicNeo-Regular-51" transform="translate(67.796875 0)"/>
     <use xlink:href="#AppleSDGothicNeo-Regular-9" transform="translate(122.296875 0)"/>
     <use xlink:href="#AppleSDGothicNeo-Regular-b" transform="translate(154 0)"/>
     <use xlink:href="#AppleSDGothicNeo-Regular-42" transform="translate(189.59375 0)"/>
     <use xlink:href="#AppleSDGothicNeo-Regular-3c" transform="translate(236.796875 0)"/>
     <use xlink:href="#AppleSDGothicNeo-Regular-1b" transform="translate(270.890625 0)"/>
     <use xlink:href="#AppleSDGothicNeo-Regular-1b" transform="translate(299.296875 0)"/>
     <use xlink:href="#AppleSDGothicNeo-Regular-e" transform="translate(327.703125 0)"/>
     <use xlink:href="#AppleSDGothicNeo-Regular-12" transform="translate(365.109375 0)"/>
     <use xlink:href="#AppleSDGothicNeo-Regular-3e" transform="translate(400.8125 0)"/>
     <use xlink:href="#AppleSDGothicNeo-Regular-a" transform="translate(434.90625 0)"/>
    </g>
    <!-- = 시계 방향 90° -->
    <g style="fill: #888888" transform="translate(294.437432 28.2) scale(0.1 -0.1)">
     <defs>
      <path id="AppleSDGothicNeo-Regular-1e" d="M 422 2816 
L 2970 2816 
L 2970 3226 
L 422 3226 
L 422 2816 
z
M 422 1542 
L 2970 1542 
L 2970 1952 
L 422 1952 
L 422 1542 
z
" transform="scale(0.015625)"/>
      <path id="AppleSDGothicNeo-Regular-926" d="M 4851 -448 
L 4851 5146 
L 4358 5146 
L 4358 -448 
L 4851 -448 
z
M 3648 1267 
C 2874 1728 2195 2643 2195 3667 
L 2195 4659 
L 1702 4659 
L 1702 3648 
C 1702 2656 1030 1638 211 1126 
L 531 762 
C 1178 1222 1754 1907 1958 2605 
C 2176 1933 2835 1242 3341 896 
L 3648 1267 
z
" transform="scale(0.015625)"/>
      <path id="AppleSDGothicNeo-Regular-485" d="M 3898 -166 
L 3898 5011 
L 3424 5011 
L 3424 3610 
L 2598 3610 
L 2598 3200 
L 3424 3200 
L 3424 2176 
L 2470 2176 
L 2470 1773 
L 3424 1773 
L 3424 -166 
L 3898 -166 
z
M 4960 -448 
L 4960 5146 
L 4480 5146 
L 4480 -448 
L 4960 -448 
z
M 2534 4448 
L 416 4448 
L 416 4038 
L 2048 4038 
C 1971 2874 1370 1747 205 1114 
L 525 749 
C 1818 1574 2496 2739 2534 4448 
z
" transform="scale(0.015625)"/>
      <path id="AppleSDGothicNeo-Regular-7d1" d="M 5395 3270 
L 5395 3674 
L 4544 3674 
L 4544 5146 
L 4058 5146 
L 4058 1805 
L 4544 1805 
L 4544 3270 
L 5395 3270 
z
M 4602 627 
C 4602 1267 3968 1690 2765 1690 
C 1587 1690 947 1267 947 627 
C 947 -19 1587 -435 2765 -435 
C 3942 -435 4602 -19 4602 627 
z
M 2765 1293 
C 3622 1293 4102 1037 4102 627 
C 4102 218 3622 -38 2765 -38 
C 1946 -38 1453 218 1453 627 
C 1453 1030 1933 1293 2765 1293 
z
M 3053 2182 
L 3053 4845 
L 2560 4845 
L 2560 3923 
L 915 3923 
L 915 4845 
L 429 4845 
L 429 2182 
L 3053 2182 
z
M 2560 2586 
L 915 2586 
L 915 3520 
L 2560 3520 
L 2560 2586 
z
" transform="scale(0.015625)"/>
      <path id="AppleSDGothicNeo-Regular-cf1" d="M 4608 506 
C 4608 1107 3962 1485 2752 1485 
C 1542 1485 902 1114 902 506 
C 902 -96 1542 -461 2752 -461 
C 3962 -461 4608 -90 4608 506 
z
M 3174 2669 
C 3174 3245 2605 3590 1856 3590 
C 1094 3590 531 3245 531 2669 
C 531 2112 1101 1754 1856 1754 
C 2605 1754 3174 2112 3174 2669 
z
M 2752 1069 
C 3597 1069 4102 864 4102 506 
C 4102 147 3597 -51 2752 -51 
C 1907 -51 1408 154 1408 506 
C 1408 858 1907 1069 2752 1069 
z
M 5395 2893 
L 4544 2893 
L 4544 3635 
L 5395 3635 
L 5395 4045 
L 4544 4045 
L 4544 5146 
L 4058 5146 
L 4058 1613 
L 4544 1613 
L 4544 2483 
L 5395 2483 
L 5395 2893 
z
M 2694 2669 
C 2694 2349 2298 2138 1856 2138 
C 1421 2138 1005 2349 1005 2669 
C 1005 3008 1414 3206 1856 3206 
C 2298 3206 2694 3008 2694 2669 
z
M 3475 3834 
L 3475 4237 
L 179 4237 
L 179 3834 
L 3475 3834 
z
M 2656 4614 
L 2656 5024 
L 1018 5024 
L 1018 4614 
L 2656 4614 
z
" transform="scale(0.015625)"/>
      <path id="AppleSDGothicNeo-Regular-11" d="M 2022 192 
C 2893 192 3558 787 3558 2240 
L 3558 2630 
C 3558 4122 2867 4634 2029 4634 
C 1184 4634 448 4122 448 2605 
L 448 2246 
C 448 794 1139 192 2022 192 
z
M 2022 614 
C 1350 614 992 1126 992 2195 
L 992 2669 
C 992 3744 1357 4211 2029 4211 
C 2688 4211 3040 3718 3040 2637 
L 3040 2163 
C 3040 1062 2682 614 2022 614 
z
" transform="scale(0.015625)"/>
      <path id="AppleSDGothicNeo-Regular-8a" d="M 973 4698 
C 531 4698 173 4352 173 3885 
C 173 3469 493 3110 960 3110 
C 1370 3110 1766 3430 1766 3917 
C 1766 4326 1478 4698 979 4698 
L 973 4698 
z
M 966 4429 
C 1325 4429 1453 4134 1453 3910 
C 1453 3610 1254 3379 966 3379 
C 691 3379 486 3603 486 3885 
C 486 4154 653 4429 960 4429 
L 966 4429 
z
" transform="scale(0.015625)"/>
     </defs>
     <use xlink:href="#AppleSDGothicNeo-Regular-1e"/>
     <use xlink:href="#AppleSDGothicNeo-Regular-1" transform="translate(52.296875 0)"/>
     <use xlink:href="#AppleSDGothicNeo-Regular-926" transform="translate(78.59375 0)"/>
     <use xlink:href="#AppleSDGothicNeo-Regular-485" transform="translate(165.09375 0)"/>
     <use xlink:href="#AppleSDGothicNeo-Regular-1" transform="translate(251.59375 0)"/>
     <use xlink:href="#AppleSDGothicNeo-Regular-7d1" transform="translate(277.890625 0)"/>
     <use xlink:href="#AppleSDGothicNeo-Regular-cf1" transform="translate(364.390625 0)"/>
     <use xlink:href="#AppleSDGothicNeo-Regular-1" transform="translate(450.890625 0)"/>
     <use xlink:href="#AppleSDGothicNeo-Regular-1a" transform="translate(477.1875 0)"/>
     <use xlink:href="#AppleSDGothicNeo-Regular-11" transform="translate(532.59375 0)"/>
     <use xlink:href="#AppleSDGothicNeo-Regular-8a" transform="translate(595.59375 0)"/>
    </g>
   </g>
  </g>
  <g id="text_31">
   <!-- → -->
   <g style="fill: #888888" transform="translate(110.151 103.407568) scale(0.18 -0.18)">
    <defs>
     <path id="AppleSDGothicNeo-Regular-aa" d="M 0 2400 
L 3328 2400 
L 2874 1645 
L 2963 1542 
L 4218 2579 
L 2963 3622 
L 2874 3520 
L 3328 2758 
L 0 2758 
L 0 2400 
z
" transform="scale(0.015625)"/>
    </defs>
    <use xlink:href="#AppleSDGothicNeo-Regular-aa"/>
   </g>
  </g>
  <g id="text_32">
   <!-- → -->
   <g style="fill: #888888" transform="translate(252.711 103.407568) scale(0.18 -0.18)">
    <use xlink:href="#AppleSDGothicNeo-Regular-aa"/>
   </g>
  </g>
 </g>
 <defs>
  <clipPath id="pbec773d261">
   <rect x="7.2" y="34.2" width="99.535135" height="99.535135"/>
  </clipPath>
  <clipPath id="p013dcf518e">
   <rect x="141.572432" y="34.2" width="99.535135" height="99.535135"/>
  </clipPath>
  <clipPath id="p9e61dfa49a">
   <rect x="275.944865" y="34.2" width="99.535135" height="99.535135"/>
  </clipPath>
 </defs>
</svg>
