<?xml version="1.0" encoding="utf-8" standalone="no"?>
<!DOCTYPE svg PUBLIC "-//W3C//DTD SVG 1.1//EN"
  "http://www.w3.org/Graphics/SVG/1.1/DTD/svg11.dtd">
<svg xmlns:xlink="http://www.w3.org/1999/xlink" width="367.057344pt" height="251.384pt" viewBox="0 0 367.057344 251.384" xmlns="http://www.w3.org/2000/svg" version="1.1">
 <metadata>
  <rdf:RDF xmlns:dc="http://purl.org/dc/elements/1.1/" xmlns:cc="http://creativecommons.org/ns#" xmlns:rdf="http://www.w3.org/1999/02/22-rdf-syntax-ns#">
   <cc:Work>
    <dc:type rdf:resource="http://purl.org/dc/dcmitype/StillImage"/>
    <dc:format>image/svg+xml</dc:format>
    <dc:creator>
     <cc:Agent>
      <dc:title>Matplotlib v3.11.2, https://matplotlib.org/</dc:title>
     </cc:Agent>
    </dc:creator>
   </cc:Work>
  </rdf:RDF>
 </metadata>
 <defs>
  <style type="text/css">*{stroke-linejoin: round; stroke-linecap: butt}</style>
 </defs>
 <g id="figure_1">
  <g id="patch_1">
   <path d="M -0 251.384 
L 367.057344 251.384 
L 367.057344 0 
L -0 0 
L -0 251.384 
z
" style="fill: none"/>
  </g>
  <g id="axes_1">
   <g id="patch_2">
    <path d="M 25.057344 206.784 
L 359.857344 206.784 
L 359.857344 7.2 
L 25.057344 7.2 
L 25.057344 206.784 
z
" style="fill: none"/>
   </g>
   <g id="matplotlib.axis_1">
    <g id="xtick_1">
     <g id="line2d_1">
      <defs>
       <path id="m86a20103fe" d="M 0 0 
L 0 3.5 
" style="stroke: #888888; stroke-width: 0.8"/>
      </defs>
      <g>
       <use xlink:href="#m86a20103fe" x="40.275526" y="206.784" style="fill: #888888; stroke: #888888; stroke-width: 0.8"/>
      </g>
     </g>
     <g id="text_1">
      <!-- 0.00 -->
      <g style="fill: #888888" transform="translate(28.637869 223.684) scale(0.11 -0.11)">
       <defs>
        <path id="AppleSDGothicNeo-Regular-11" d="M 2022 192 
C 2893 192 3558 787 3558 2240 
L 3558 2630 
C 3558 4122 2867 4634 2029 4634 
C 1184 4634 448 4122 448 2605 
L 448 2246 
C 448 794 1139 192 2022 192 
z
M 2022 614 
C 1350 614 992 1126 992 2195 
L 992 2669 
C 992 3744 1357 4211 2029 4211 
C 2688 4211 3040 3718 3040 2637 
L 3040 2163 
C 3040 1062 2682 614 2022 614 
z
" transform="scale(0.015625)"/>
        <path id="AppleSDGothicNeo-Regular-f" d="M 269 109 
L 826 109 
L 826 678 
L 269 678 
L 269 109 
z
" transform="scale(0.015625)"/>
       </defs>
       <use xlink:href="#AppleSDGothicNeo-Regular-11"/>
       <use xlink:href="#AppleSDGothicNeo-Regular-f" transform="translate(63 0)"/>
       <use xlink:href="#AppleSDGothicNeo-Regular-11" transform="translate(85.59375 0)"/>
       <use xlink:href="#AppleSDGothicNeo-Regular-11" transform="translate(148.59375 0)"/>
      </g>
     </g>
    </g>
    <g id="xtick_2">
     <g id="line2d_2">
      <g>
       <use xlink:href="#m86a20103fe" x="78.32098" y="206.784" style="fill: #888888; stroke: #888888; stroke-width: 0.8"/>
      </g>
     </g>
     <g id="text_2">
      <!-- 0.25 -->
      <g style="fill: #888888" transform="translate(67.937152 223.684) scale(0.11 -0.11)">
       <defs>
        <path id="AppleSDGothicNeo-Regular-13" d="M 397 269 
L 3066 269 
L 3066 704 
L 1107 704 
L 1779 1382 
C 2522 2138 2970 2650 2970 3392 
C 2970 4160 2502 4640 1638 4640 
C 1152 4640 717 4422 448 4250 
L 595 3846 
C 845 4019 1190 4198 1555 4198 
C 2163 4198 2438 3917 2438 3347 
C 2438 2733 2029 2266 1421 1632 
L 397 570 
L 397 269 
z
" transform="scale(0.015625)"/>
        <path id="AppleSDGothicNeo-Regular-16" d="M 1395 192 
C 2342 192 2906 838 2906 1606 
C 2906 2509 2374 2918 1510 2918 
C 1331 2918 1069 2874 896 2829 
L 986 4134 
L 2752 4134 
L 2752 4570 
L 576 4570 
L 422 2317 
C 621 2406 1024 2528 1318 2528 
C 1990 2528 2374 2266 2374 1613 
C 2374 1005 1978 621 1299 621 
C 947 621 525 768 288 928 
L 192 518 
C 448 333 896 192 1395 192 
z
" transform="scale(0.015625)"/>
       </defs>
       <use xlink:href="#AppleSDGothicNeo-Regular-11"/>
       <use xlink:href="#AppleSDGothicNeo-Regular-f" transform="translate(63 0)"/>
       <use xlink:href="#AppleSDGothicNeo-Regular-13" transform="translate(85.59375 0)"/>
       <use xlink:href="#AppleSDGothicNeo-Regular-16" transform="translate(138.890625 0)"/>
      </g>
     </g>
    </g>
    <g id="xtick_3">
     <g id="line2d_3">
      <g>
       <use xlink:href="#m86a20103fe" x="116.366435" y="206.784" style="fill: #888888; stroke: #888888; stroke-width: 0.8"/>
      </g>
     </g>
     <g id="text_3">
      <!-- 0.50 -->
      <g style="fill: #888888" transform="translate(105.448935 223.684) scale(0.11 -0.11)">
       <use xlink:href="#AppleSDGothicNeo-Regular-11"/>
       <use xlink:href="#AppleSDGothicNeo-Regular-f" transform="translate(63 0)"/>
       <use xlink:href="#AppleSDGothicNeo-Regular-16" transform="translate(85.59375 0)"/>
       <use xlink:href="#AppleSDGothicNeo-Regular-11" transform="translate(135.5 0)"/>
      </g>
     </g>
    </g>
    <g id="xtick_4">
     <g id="line2d_4">
      <g>
       <use xlink:href="#m86a20103fe" x="154.411889" y="206.784" style="fill: #888888; stroke: #888888; stroke-width: 0.8"/>
      </g>
     </g>
     <g id="text_4">
      <!-- 0.75 -->
      <g style="fill: #888888" transform="translate(144.264389 223.684) scale(0.11 -0.11)">
       <defs>
        <path id="AppleSDGothicNeo-Regular-18" d="M 710 243 
L 1274 243 
L 2957 4218 
L 2957 4544 
L 218 4544 
L 218 4115 
L 2400 4115 
L 710 243 
z
" transform="scale(0.015625)"/>
       </defs>
       <use xlink:href="#AppleSDGothicNeo-Regular-11"/>
       <use xlink:href="#AppleSDGothicNeo-Regular-f" transform="translate(63 0)"/>
       <use xlink:href="#AppleSDGothicNeo-Regular-18" transform="translate(85.59375 0)"/>
       <use xlink:href="#AppleSDGothicNeo-Regular-16" transform="translate(134.59375 0)"/>
      </g>
     </g>
    </g>
    <g id="xtick_5">
     <g id="line2d_5">
      <g>
       <use xlink:href="#m86a20103fe" x="192.457344" y="206.784" style="fill: #888888; stroke: #888888; stroke-width: 0.8"/>
      </g>
     </g>
     <g id="text_5">
      <!-- 1.00 -->
      <g style="fill: #888888" transform="translate(182.321016 223.684) scale(0.11 -0.11)">
       <defs>
        <path id="AppleSDGothicNeo-Regular-12" d="M 1146 243 
L 1632 243 
L 1632 4634 
L 1363 4634 
L 352 4160 
L 352 3866 
L 1146 4051 
L 1146 243 
z
" transform="scale(0.015625)"/>
       </defs>
       <use xlink:href="#AppleSDGothicNeo-Regular-12"/>
       <use xlink:href="#AppleSDGothicNeo-Regular-f" transform="translate(35.703125 0)"/>
       <use xlink:href="#AppleSDGothicNeo-Regular-11" transform="translate(58.296875 0)"/>
       <use xlink:href="#AppleSDGothicNeo-Regular-11" transform="translate(121.296875 0)"/>
      </g>
     </g>
    </g>
    <g id="xtick_6">
     <g id="line2d_6">
      <g>
       <use xlink:href="#m86a20103fe" x="230.502798" y="206.784" style="fill: #888888; stroke: #888888; stroke-width: 0.8"/>
      </g>
     </g>
     <g id="text_6">
      <!-- 1.25 -->
      <g style="fill: #888888" transform="translate(221.620298 223.684) scale(0.11 -0.11)">
       <use xlink:href="#AppleSDGothicNeo-Regular-12"/>
       <use xlink:href="#AppleSDGothicNeo-Regular-f" transform="translate(35.703125 0)"/>
       <use xlink:href="#AppleSDGothicNeo-Regular-13" transform="translate(58.296875 0)"/>
       <use xlink:href="#AppleSDGothicNeo-Regular-16" transform="translate(111.59375 0)"/>
      </g>
     </g>
    </g>
    <g id="xtick_7">
     <g id="line2d_7">
      <g>
       <use xlink:href="#m86a20103fe" x="268.548253" y="206.784" style="fill: #888888; stroke: #888888; stroke-width: 0.8"/>
      </g>
     </g>
     <g id="text_7">
      <!-- 1.50 -->
      <g style="fill: #888888" transform="translate(259.132081 223.684) scale(0.11 -0.11)">
       <use xlink:href="#AppleSDGothicNeo-Regular-12"/>
       <use xlink:href="#AppleSDGothicNeo-Regular-f" transform="translate(35.703125 0)"/>
       <use xlink:href="#AppleSDGothicNeo-Regular-16" transform="translate(58.296875 0)"/>
       <use xlink:href="#AppleSDGothicNeo-Regular-11" transform="translate(108.203125 0)"/>
      </g>
     </g>
    </g>
    <g id="xtick_8">
     <g id="line2d_8">
      <g>
       <use xlink:href="#m86a20103fe" x="306.593707" y="206.784" style="fill: #888888; stroke: #888888; stroke-width: 0.8"/>
      </g>
     </g>
     <g id="text_8">
      <!-- 1.75 -->
      <g style="fill: #888888" transform="translate(297.947536 223.684) scale(0.11 -0.11)">
       <use xlink:href="#AppleSDGothicNeo-Regular-12"/>
       <use xlink:href="#AppleSDGothicNeo-Regular-f" transform="translate(35.703125 0)"/>
       <use xlink:href="#AppleSDGothicNeo-Regular-18" transform="translate(58.296875 0)"/>
       <use xlink:href="#AppleSDGothicNeo-Regular-16" transform="translate(107.296875 0)"/>
      </g>
     </g>
    </g>
    <g id="xtick_9">
     <g id="line2d_9">
      <g>
       <use xlink:href="#m86a20103fe" x="344.639162" y="206.784" style="fill: #888888; stroke: #888888; stroke-width: 0.8"/>
      </g>
     </g>
     <g id="text_9">
      <!-- 2.00 -->
      <g style="fill: #888888" transform="translate(333.535178 223.684) scale(0.11 -0.11)">
       <use xlink:href="#AppleSDGothicNeo-Regular-13"/>
       <use xlink:href="#AppleSDGothicNeo-Regular-f" transform="translate(53.296875 0)"/>
       <use xlink:href="#AppleSDGothicNeo-Regular-11" transform="translate(75.890625 0)"/>
       <use xlink:href="#AppleSDGothicNeo-Regular-11" transform="translate(138.890625 0)"/>
      </g>
     </g>
    </g>
    <g id="text_10">
     <!-- $x$ -->
     <g style="fill: #888888" transform="translate(189.157344 240.884) scale(0.11 -0.11)">
      <defs>
       <path id="DejaVuSans-Oblique-5b" d="M 3841 3500 
L 2234 1784 
L 3219 0 
L 2559 0 
L 1819 1388 
L 531 0 
L -166 0 
L 1556 1844 
L 641 3500 
L 1300 3500 
L 1972 2234 
L 3144 3500 
L 3841 3500 
z
" transform="scale(0.015625)"/>
      </defs>
      <use xlink:href="#DejaVuSans-Oblique-5b" transform="translate(0 0.3125)"/>
     </g>
    </g>
   </g>
   <g id="matplotlib.axis_2">
    <g id="ytick_1">
     <g id="line2d_10">
      <defs>
       <path id="m7329ef3424" d="M 0 0 
L -3.5 0 
" style="stroke: #888888; stroke-width: 0.8"/>
      </defs>
      <g>
       <use xlink:href="#m7329ef3424" x="25.057344" y="206.784" style="fill: #888888; stroke: #888888; stroke-width: 0.8"/>
      </g>
     </g>
     <g id="text_11">
      <!-- 0 -->
      <g style="fill: #888888" transform="translate(11.127344 211.734) scale(0.11 -0.11)">
       <use xlink:href="#AppleSDGothicNeo-Regular-11"/>
      </g>
     </g>
    </g>
    <g id="ytick_2">
     <g id="line2d_11">
      <g>
       <use xlink:href="#m7329ef3424" x="25.057344" y="168.768" style="fill: #888888; stroke: #888888; stroke-width: 0.8"/>
      </g>
     </g>
     <g id="text_12">
      <!-- 2 -->
      <g style="fill: #888888" transform="translate(12.194687 173.718) scale(0.11 -0.11)">
       <use xlink:href="#AppleSDGothicNeo-Regular-13"/>
      </g>
     </g>
    </g>
    <g id="ytick_3">
     <g id="line2d_12">
      <g>
       <use xlink:href="#m7329ef3424" x="25.057344" y="130.752" style="fill: #888888; stroke: #888888; stroke-width: 0.8"/>
      </g>
     </g>
     <g id="text_13">
      <!-- 4 -->
      <g style="fill: #888888" transform="translate(11.952344 135.702) scale(0.11 -0.11)">
       <defs>
        <path id="AppleSDGothicNeo-Regular-15" d="M 2214 166 
L 2682 166 
L 2682 1171 
L 3398 1171 
L 3398 1587 
L 2682 1587 
L 2682 4621 
L 2285 4621 
L 186 1555 
L 186 1171 
L 2214 1171 
L 2214 166 
z
M 730 1587 
L 2214 3814 
L 2214 1587 
L 730 1587 
z
" transform="scale(0.015625)"/>
       </defs>
       <use xlink:href="#AppleSDGothicNeo-Regular-15"/>
      </g>
     </g>
    </g>
    <g id="ytick_4">
     <g id="line2d_13">
      <g>
       <use xlink:href="#m7329ef3424" x="25.057344" y="92.736" style="fill: #888888; stroke: #888888; stroke-width: 0.8"/>
      </g>
     </g>
     <g id="text_14">
      <!-- 6 -->
      <g style="fill: #888888" transform="translate(11.962656 97.686) scale(0.11 -0.11)">
       <defs>
        <path id="AppleSDGothicNeo-Regular-17" d="M 1837 192 
C 2707 192 3232 826 3232 1645 
C 3232 2464 2656 2957 1939 2957 
C 1459 2957 1107 2733 877 2496 
C 941 3834 1350 4205 2080 4205 
C 2355 4205 2733 4096 2886 4006 
L 3034 4378 
C 2854 4486 2458 4634 2029 4634 
C 1037 4634 365 3968 365 2451 
L 365 2118 
C 365 896 877 192 1837 192 
z
M 1830 614 
C 1146 614 877 1139 877 1939 
L 877 1984 
C 1056 2240 1427 2528 1837 2528 
C 2355 2528 2720 2266 2720 1594 
C 2720 979 2387 614 1830 614 
z
" transform="scale(0.015625)"/>
       </defs>
       <use xlink:href="#AppleSDGothicNeo-Regular-17"/>
      </g>
     </g>
    </g>
    <g id="ytick_5">
     <g id="line2d_14">
      <g>
       <use xlink:href="#m7329ef3424" x="25.057344" y="54.72" style="fill: #888888; stroke: #888888; stroke-width: 0.8"/>
      </g>
     </g>
     <g id="text_15">
      <!-- 8 -->
      <g style="fill: #888888" transform="translate(11.732344 59.67) scale(0.11 -0.11)">
       <defs>
        <path id="AppleSDGothicNeo-Regular-19" d="M 1837 186 
C 2765 186 3341 723 3341 1408 
C 3341 2054 2829 2362 2298 2534 
C 2739 2765 3168 3066 3168 3584 
C 3168 4250 2624 4640 1818 4640 
C 992 4640 461 4179 461 3558 
C 461 3008 838 2682 1299 2502 
C 826 2317 339 1926 339 1363 
C 339 659 922 186 1837 186 
z
M 1830 608 
C 1261 608 851 909 851 1382 
C 851 1856 1280 2163 1702 2310 
C 2445 2074 2797 1882 2797 1357 
C 2797 915 2381 608 1830 608 
z
M 1920 2720 
C 1350 2867 1005 3130 1005 3571 
C 1005 3981 1331 4218 1824 4218 
C 2355 4218 2637 3942 2637 3565 
C 2637 3155 2323 2899 1920 2720 
z
" transform="scale(0.015625)"/>
       </defs>
       <use xlink:href="#AppleSDGothicNeo-Regular-19"/>
      </g>
     </g>
    </g>
    <g id="ytick_6">
     <g id="line2d_15">
      <g>
       <use xlink:href="#m7329ef3424" x="25.057344" y="16.704" style="fill: #888888; stroke: #888888; stroke-width: 0.8"/>
      </g>
     </g>
     <g id="text_16">
      <!-- 10 -->
      <g style="fill: #888888" transform="translate(7.2 21.654) scale(0.11 -0.11)">
       <use xlink:href="#AppleSDGothicNeo-Regular-12"/>
       <use xlink:href="#AppleSDGothicNeo-Regular-11" transform="translate(35.703125 0)"/>
      </g>
     </g>
    </g>
   </g>
   <g id="line2d_16">
    <path d="M 40.275526 130.752 
L 57.099646 134.840728 
L 73.923767 138.709579 
L 92.277353 142.693251 
L 110.630939 146.443801 
L 128.984525 149.974872 
L 148.867577 153.5674 
L 168.750628 156.932741 
L 190.163145 160.319341 
L 211.575663 163.475876 
L 234.517645 166.62031 
L 257.459628 169.536439 
L 281.931076 172.413987 
L 306.402524 175.069232 
L 332.403438 177.666036 
L 344.639162 178.81339 
L 344.639162 178.81339 
" clip-path="url(#p28c3864d9a)" style="fill: none; stroke: #3b82c4; stroke-width: 2; stroke-linecap: square"/>
   </g>
   <g id="line2d_17">
    <path d="M 40.275526 130.752 
L 116.366435 149.76 
L 192.457344 164.016 
L 268.548253 174.708 
L 344.639162 182.727 
" clip-path="url(#p28c3864d9a)" style="fill: none; stroke-dasharray: 2.96,1.28; stroke-dashoffset: 0; stroke: #3b82c4; stroke-width: 0.8"/>
    <defs>
     <path id="me5a4d72f63" d="M 0 2.5 
C 0.663008 2.5 1.29895 2.236584 1.767767 1.767767 
C 2.236584 1.29895 2.5 0.663008 2.5 0 
C 2.5 -0.663008 2.236584 -1.29895 1.767767 -1.767767 
C 1.29895 -2.236584 0.663008 -2.5 0 -2.5 
C -0.663008 -2.5 -1.29895 -2.236584 -1.767767 -1.767767 
C -2.236584 -1.29895 -2.5 -0.663008 -2.5 0 
C -2.5 0.663008 -2.236584 1.29895 -1.767767 1.767767 
C -1.29895 2.236584 -0.663008 2.5 0 2.5 
z
" style="stroke: #3b82c4"/>
    </defs>
    <g clip-path="url(#p28c3864d9a)">
     <use xlink:href="#me5a4d72f63" x="40.275526" y="130.752" style="fill-opacity: 0; stroke: #3b82c4"/>
     <use xlink:href="#me5a4d72f63" x="116.366435" y="149.76" style="fill-opacity: 0; stroke: #3b82c4"/>
     <use xlink:href="#me5a4d72f63" x="192.457344" y="164.016" style="fill-opacity: 0; stroke: #3b82c4"/>
     <use xlink:href="#me5a4d72f63" x="268.548253" y="174.708" style="fill-opacity: 0; stroke: #3b82c4"/>
     <use xlink:href="#me5a4d72f63" x="344.639162" y="182.727" style="fill-opacity: 0; stroke: #3b82c4"/>
    </g>
   </g>
   <g id="line2d_18">
    <defs>
     <path id="md21aef9dbb" d="M -3.5 3.5 
L 3.5 -3.5 
M -3.5 -3.5 
L 3.5 3.5 
" style="stroke: #888888; stroke-width: 1.5"/>
    </defs>
    <g clip-path="url(#p28c3864d9a)">
     <use xlink:href="#md21aef9dbb" x="40.275526" y="130.752" style="fill: #888888; stroke: #888888; stroke-width: 1.5"/>
     <use xlink:href="#md21aef9dbb" x="116.366435" y="147.569625" style="fill: #888888; stroke: #888888; stroke-width: 1.5"/>
     <use xlink:href="#md21aef9dbb" x="192.457344" y="160.667336" style="fill: #888888; stroke: #888888; stroke-width: 1.5"/>
     <use xlink:href="#md21aef9dbb" x="268.548253" y="170.867946" style="fill: #888888; stroke: #888888; stroke-width: 1.5"/>
     <use xlink:href="#md21aef9dbb" x="344.639162" y="178.812268" style="fill: #888888; stroke: #888888; stroke-width: 1.5"/>
    </g>
   </g>
   <g id="line2d_19">
    <path d="M 40.275526 92.736 
L 69.33537 86.32033 
L 98.395215 80.139368 
L 127.45506 74.1912 
L 156.514904 68.473005 
L 185.574749 62.981194 
L 214.634594 57.711538 
L 243.694438 52.659282 
L 274.283749 47.570279 
L 304.873059 42.709963 
L 335.462369 38.071561 
L 344.639162 36.72227 
L 344.639162 36.72227 
" clip-path="url(#p28c3864d9a)" style="fill: none; stroke: #d9622b; stroke-width: 2; stroke-linecap: square"/>
   </g>
   <g id="line2d_20">
    <path d="M 40.275526 92.736 
L 116.366435 75.6288 
L 192.457344 60.13728 
L 268.548253 46.256688 
L 344.639162 33.923585 
" clip-path="url(#p28c3864d9a)" style="fill: none; stroke-dasharray: 2.96,1.28; stroke-dashoffset: 0; stroke: #d9622b; stroke-width: 0.8"/>
    <defs>
     <path id="mac504d8552" d="M 0 2.5 
C 0.663008 2.5 1.29895 2.236584 1.767767 1.767767 
C 2.236584 1.29895 2.5 0.663008 2.5 0 
C 2.5 -0.663008 2.236584 -1.29895 1.767767 -1.767767 
C 1.29895 -2.236584 0.663008 -2.5 0 -2.5 
C -0.663008 -2.5 -1.29895 -2.236584 -1.767767 -1.767767 
C -2.236584 -1.29895 -2.5 -0.663008 -2.5 0 
C -2.5 0.663008 -2.236584 1.29895 -1.767767 1.767767 
C -1.29895 2.236584 -0.663008 2.5 0 2.5 
z
" style="stroke: #d9622b"/>
    </defs>
    <g clip-path="url(#p28c3864d9a)">
     <use xlink:href="#mac504d8552" x="40.275526" y="92.736" style="fill-opacity: 0; stroke: #d9622b"/>
     <use xlink:href="#mac504d8552" x="116.366435" y="75.6288" style="fill-opacity: 0; stroke: #d9622b"/>
     <use xlink:href="#mac504d8552" x="192.457344" y="60.13728" style="fill-opacity: 0; stroke: #d9622b"/>
     <use xlink:href="#mac504d8552" x="268.548253" y="46.256688" style="fill-opacity: 0; stroke: #d9622b"/>
     <use xlink:href="#mac504d8552" x="344.639162" y="33.923585" style="fill-opacity: 0; stroke: #d9622b"/>
    </g>
   </g>
   <g id="line2d_21">
    <g clip-path="url(#p28c3864d9a)">
     <use xlink:href="#md21aef9dbb" x="40.275526" y="92.736" style="fill: #888888; stroke: #888888; stroke-width: 1.5"/>
     <use xlink:href="#md21aef9dbb" x="116.366435" y="76.433403" style="fill: #888888; stroke: #888888; stroke-width: 1.5"/>
     <use xlink:href="#md21aef9dbb" x="192.457344" y="61.712935" style="fill: #888888; stroke: #888888; stroke-width: 1.5"/>
     <use xlink:href="#md21aef9dbb" x="268.548253" y="48.506551" style="fill: #888888; stroke: #888888; stroke-width: 1.5"/>
     <use xlink:href="#md21aef9dbb" x="344.639162" y="36.721988" style="fill: #888888; stroke: #888888; stroke-width: 1.5"/>
    </g>
   </g>
   <g id="line2d_22"/>
   <g id="patch_3">
    <path d="M 25.057344 206.784 
L 25.057344 7.2 
" style="fill: none; stroke: #888888; stroke-width: 0.8; stroke-linejoin: miter; stroke-linecap: square"/>
   </g>
   <g id="patch_4">
    <path d="M 25.057344 206.784 
L 359.857344 206.784 
" style="fill: none; stroke: #888888; stroke-width: 0.8; stroke-linejoin: miter; stroke-linecap: square"/>
   </g>
   <g id="legend_1">
    <g id="line2d_23">
     <path d="M 291.187344 75.942 
L 300.187344 75.942 
L 309.187344 75.942 
" style="fill: none; stroke: #3b82c4; stroke-width: 2; stroke-linecap: square"/>
    </g>
    <g id="text_17">
     <!-- $y_1$ 참값 -->
     <g style="fill: #888888" transform="translate(316.387344 79.092) scale(0.09 -0.09)">
      <defs>
       <path id="DejaVuSans-Oblique-5c" d="M 1588 -325 
Q 1188 -997 936 -1164 
Q 684 -1331 294 -1331 
L -159 -1331 
L -63 -850 
L 269 -850 
Q 509 -850 678 -719 
Q 847 -588 1056 -206 
L 1234 128 
L 459 3500 
L 1069 3500 
L 1650 819 
L 3256 3500 
L 3859 3500 
L 1588 -325 
z
" transform="scale(0.015625)"/>
       <path id="DejaVuSans-14" d="M 794 531 
L 1825 531 
L 1825 4091 
L 703 3866 
L 703 4441 
L 1819 4666 
L 2450 4666 
L 2450 531 
L 3481 531 
L 3481 0 
L 794 0 
L 794 531 
z
" transform="scale(0.015625)"/>
       <path id="AppleSDGothicNeo-Regular-1" transform="scale(0.015625)"/>
       <path id="AppleSDGothicNeo-Regular-b35" d="M 4544 -371 
L 4544 1523 
L 986 1523 
L 986 -371 
L 4544 -371 
z
M 320 3648 
L 1568 3648 
C 1530 2963 877 2323 160 2112 
L 429 1741 
C 1069 1965 1651 2522 1837 3021 
C 2099 2515 2688 2054 3181 1901 
L 3430 2278 
C 2797 2438 2144 2976 2086 3648 
L 3322 3648 
L 3322 4045 
L 320 4045 
L 320 3648 
z
M 4058 32 
L 1472 32 
L 1472 1120 
L 4058 1120 
L 4058 32 
z
M 5395 3232 
L 5395 3642 
L 4544 3642 
L 4544 5146 
L 4058 5146 
L 4058 1818 
L 4544 1818 
L 4544 3232 
L 5395 3232 
z
M 1050 4563 
L 2611 4563 
L 2611 4979 
L 1050 4979 
L 1050 4563 
z
" transform="scale(0.015625)"/>
       <path id="AppleSDGothicNeo-Regular-447" d="M 2733 -390 
L 2733 1792 
L 2253 1792 
L 2253 1082 
L 1344 1082 
L 1344 1786 
L 877 1786 
L 877 -390 
L 2733 -390 
z
M 461 4787 
L 461 4378 
L 2483 4378 
C 2336 3456 1338 2662 211 2438 
L 461 2029 
C 1824 2419 2950 3296 3027 4787 
L 461 4787 
z
M 5389 3379 
L 5389 3789 
L 4538 3789 
L 4538 5146 
L 4051 5146 
L 4051 2131 
L 4538 2131 
L 4538 3379 
L 5389 3379 
z
M 5222 -70 
C 4602 205 4256 826 4256 1382 
L 4256 1843 
L 3776 1843 
L 3776 1382 
C 3776 819 3430 166 2797 -122 
L 3098 -448 
C 3539 -218 3904 243 4006 582 
C 4128 262 4518 -186 4928 -416 
L 5222 -70 
z
M 2253 -6 
L 1344 -6 
L 1344 710 
L 2253 710 
L 2253 -6 
z
" transform="scale(0.015625)"/>
      </defs>
      <use xlink:href="#DejaVuSans-Oblique-5c" transform="translate(0 0.59375)"/>
      <use xlink:href="#DejaVuSans-14" transform="translate(59.179688 -14.406201) scale(0.7)"/>
      <use xlink:href="#AppleSDGothicNeo-Regular-1" transform="translate(106.450195 0.59375)"/>
      <use xlink:href="#AppleSDGothicNeo-Regular-b35" transform="translate(132.750168 0.59375)"/>
      <use xlink:href="#AppleSDGothicNeo-Regular-447" transform="translate(219.250092 0.59375)"/>
     </g>
    </g>
    <g id="line2d_24">
     <path d="M 291.187344 91.242 
L 300.187344 91.242 
L 309.187344 91.242 
" style="fill: none; stroke-dasharray: 2.96,1.28; stroke-dashoffset: 0; stroke: #3b82c4; stroke-width: 0.8"/>
     <g>
      <use xlink:href="#me5a4d72f63" x="300.187344" y="91.242" style="fill-opacity: 0; stroke: #3b82c4"/>
     </g>
    </g>
    <g id="text_18">
     <!-- $y_1$ 오일러 -->
     <g style="fill: #888888" transform="translate(316.387344 94.392) scale(0.09 -0.09)">
      <defs>
       <path id="AppleSDGothicNeo-Regular-9df" d="M 4781 3270 
C 4781 4192 3981 4794 2758 4794 
C 1555 4794 749 4192 749 3270 
C 749 2413 1446 1837 2515 1760 
L 2515 698 
L 243 698 
L 243 288 
L 5293 288 
L 5293 698 
L 3002 698 
L 3002 1760 
C 4077 1830 4781 2413 4781 3270 
z
M 4314 3264 
C 4314 2592 3699 2150 2758 2150 
C 1830 2150 1222 2592 1222 3264 
C 1222 3936 1830 4384 2758 4384 
C 3706 4384 4314 3936 4314 3264 
z
" transform="scale(0.015625)"/>
       <path id="AppleSDGothicNeo-Regular-a4c" d="M 4813 2317 
L 4813 5146 
L 4326 5146 
L 4326 2317 
L 4813 2317 
z
M 5018 -371 
L 5018 26 
L 1677 26 
L 1677 666 
L 4813 666 
L 4813 2022 
L 1171 2022 
L 1171 1626 
L 4326 1626 
L 4326 1043 
L 1190 1043 
L 1190 -371 
L 5018 -371 
z
M 1850 4973 
C 1043 4973 390 4461 390 3706 
C 390 2944 1050 2458 1850 2458 
C 2650 2458 3296 2950 3296 3706 
C 3296 4467 2650 4973 1850 4973 
z
M 1850 4550 
C 2432 4550 2822 4205 2822 3706 
C 2822 3213 2432 2880 1850 2880 
C 1293 2880 864 3213 864 3712 
C 864 4211 1299 4550 1850 4550 
z
" transform="scale(0.015625)"/>
       <path id="AppleSDGothicNeo-Regular-6de" d="M 4806 -448 
L 4806 5146 
L 4320 5146 
L 4320 2963 
L 3315 2963 
L 3315 2547 
L 4320 2547 
L 4320 -448 
L 4806 -448 
z
M 3418 1466 
C 2720 1344 1651 1293 922 1293 
L 922 2650 
L 2982 2650 
L 2982 4614 
L 435 4614 
L 435 4211 
L 2496 4211 
L 2496 3059 
L 435 3059 
L 435 877 
L 838 877 
C 1670 877 2893 960 3469 1062 
L 3418 1466 
z
" transform="scale(0.015625)"/>
      </defs>
      <use xlink:href="#DejaVuSans-Oblique-5c" transform="translate(0 0.59375)"/>
      <use xlink:href="#DejaVuSans-14" transform="translate(59.179688 -14.406201) scale(0.7)"/>
      <use xlink:href="#AppleSDGothicNeo-Regular-1" transform="translate(106.450195 0.59375)"/>
      <use xlink:href="#AppleSDGothicNeo-Regular-9df" transform="translate(132.750168 0.59375)"/>
      <use xlink:href="#AppleSDGothicNeo-Regular-a4c" transform="translate(219.250092 0.59375)"/>
      <use xlink:href="#AppleSDGothicNeo-Regular-6de" transform="translate(305.750015 0.59375)"/>
     </g>
    </g>
    <g id="line2d_25">
     <path d="M 291.187344 106.542 
L 300.187344 106.542 
L 309.187344 106.542 
" style="fill: none; stroke: #d9622b; stroke-width: 2; stroke-linecap: square"/>
    </g>
    <g id="text_19">
     <!-- $y_2$ 참값 -->
     <g style="fill: #888888" transform="translate(316.387344 109.692) scale(0.09 -0.09)">
      <defs>
       <path id="DejaVuSans-15" d="M 1228 531 
L 3431 531 
L 3431 0 
L 469 0 
L 469 531 
Q 828 903 1448 1529 
Q 2069 2156 2228 2338 
Q 2531 2678 2651 2914 
Q 2772 3150 2772 3378 
Q 2772 3750 2511 3984 
Q 2250 4219 1831 4219 
Q 1534 4219 1204 4116 
Q 875 4013 500 3803 
L 500 4441 
Q 881 4594 1212 4672 
Q 1544 4750 1819 4750 
Q 2544 4750 2975 4387 
Q 3406 4025 3406 3419 
Q 3406 3131 3298 2873 
Q 3191 2616 2906 2266 
Q 2828 2175 2409 1742 
Q 1991 1309 1228 531 
z
" transform="scale(0.015625)"/>
      </defs>
      <use xlink:href="#DejaVuSans-Oblique-5c" transform="translate(0 0.59375)"/>
      <use xlink:href="#DejaVuSans-15" transform="translate(59.179688 -14.406201) scale(0.7)"/>
      <use xlink:href="#AppleSDGothicNeo-Regular-1" transform="translate(106.450195 0.59375)"/>
      <use xlink:href="#AppleSDGothicNeo-Regular-b35" transform="translate(132.750168 0.59375)"/>
      <use xlink:href="#AppleSDGothicNeo-Regular-447" transform="translate(219.250092 0.59375)"/>
     </g>
    </g>
    <g id="line2d_26">
     <path d="M 291.187344 121.842 
L 300.187344 121.842 
L 309.187344 121.842 
" style="fill: none; stroke-dasharray: 2.96,1.28; stroke-dashoffset: 0; stroke: #d9622b; stroke-width: 0.8"/>
     <g>
      <use xlink:href="#mac504d8552" x="300.187344" y="121.842" style="fill-opacity: 0; stroke: #d9622b"/>
     </g>
    </g>
    <g id="text_20">
     <!-- $y_2$ 오일러 -->
     <g style="fill: #888888" transform="translate(316.387344 124.992) scale(0.09 -0.09)">
      <use xlink:href="#DejaVuSans-Oblique-5c" transform="translate(0 0.59375)"/>
      <use xlink:href="#DejaVuSans-15" transform="translate(59.179688 -14.406201) scale(0.7)"/>
      <use xlink:href="#AppleSDGothicNeo-Regular-1" transform="translate(106.450195 0.59375)"/>
      <use xlink:href="#AppleSDGothicNeo-Regular-9df" transform="translate(132.750168 0.59375)"/>
      <use xlink:href="#AppleSDGothicNeo-Regular-a4c" transform="translate(219.250092 0.59375)"/>
      <use xlink:href="#AppleSDGothicNeo-Regular-6de" transform="translate(305.750015 0.59375)"/>
     </g>
    </g>
    <g id="line2d_27">
     <g>
      <use xlink:href="#md21aef9dbb" x="300.187344" y="137.142" style="fill: #888888; stroke: #888888; stroke-width: 1.5"/>
     </g>
    </g>
    <g id="text_21">
     <!-- RK4 -->
     <g style="fill: #888888" transform="translate(316.387344 140.292) scale(0.09 -0.09)">
      <defs>
       <path id="AppleSDGothicNeo-Regular-33" d="M 550 269 
L 1056 269 
L 1056 2112 
L 1875 2112 
L 2944 269 
L 3520 269 
L 2381 2202 
L 2381 2234 
C 2912 2400 3219 2746 3219 3360 
C 3219 4134 2746 4563 1798 4563 
L 550 4563 
L 550 269 
z
M 1056 2509 
L 1056 4134 
L 1760 4134 
C 2419 4134 2682 3885 2682 3354 
C 2682 2797 2438 2509 1766 2509 
L 1056 2509 
z
" transform="scale(0.015625)"/>
       <path id="AppleSDGothicNeo-Regular-2c" d="M 2970 269 
L 3565 269 
L 1747 2509 
L 3488 4563 
L 2944 4563 
L 1152 2458 
L 2970 269 
z
M 557 269 
L 1062 269 
L 1062 4563 
L 557 4563 
L 557 269 
z
" transform="scale(0.015625)"/>
      </defs>
      <use xlink:href="#AppleSDGothicNeo-Regular-33"/>
      <use xlink:href="#AppleSDGothicNeo-Regular-2c" transform="translate(57.796875 0)"/>
      <use xlink:href="#AppleSDGothicNeo-Regular-15" transform="translate(116.203125 0)"/>
     </g>
    </g>
   </g>
  </g>
 </g>
 <defs>
  <clipPath id="p28c3864d9a">
   <rect x="25.057344" y="7.2" width="334.8" height="199.584"/>
  </clipPath>
 </defs>
</svg>
